<svg id="Layer_2" data-name="Layer 2" xmlns="http://www.w3.org/2000/svg" viewBox="0 0 828.84 1402.49"><defs><style>.cls-1{fill:#388cf7;}.cls-2{fill:#69e4be;}.cls-3{fill:#fff;}</style></defs><circle class="cls-1" cx="671.53" cy="345.38" r="61.55"/><ellipse class="cls-1" cx="490.61" cy="629.17" rx="232.67" ry="134.01" transform="translate(-305.53 577.09) rotate(-48.31)"/><ellipse class="cls-2" cx="324.65" cy="616.2" rx="132.9" ry="235.32" transform="translate(-282.39 274.73) rotate(-32.86)"/><circle class="cls-2" cx="157.31" cy="345.38" r="61.55"/><path class="cls-3" d="M193.62,1113.29h-31.5v-40h-24.3v40H106.17v-102.9h31.5v37.95H162v-37.95h31.65Z"/><path class="cls-3" d="M275.6,1041.89q9.22,6.75,9.22,17.56v31.64a5.71,5.71,0,0,0,1.35,4.2,4.45,4.45,0,0,0,3.3,1.35,10.42,10.42,0,0,0,5.25-1.35v16q-4.8,3.45-15.15,3.45-9.6,0-15.15-3.22a13.74,13.74,0,0,1-6.9-8.93A40.53,40.53,0,0,1,247,1111.5a28.3,28.3,0,0,1-14.18,3.29q-12,0-19.5-4.65t-7.5-18.3q0-10.33,5.85-16t16.73-7.8q10.88-2.17,27.67-2.18v-4.35a8.26,8.26,0,0,0-2.77-6.59,10.3,10.3,0,0,0-7-2.41,11.65,11.65,0,0,0-6.52,2c-2.05,1.35-3.08,3-3.08,5v.61h-28.5a8.82,8.82,0,0,1-.15-2.11,17.44,17.44,0,0,1,4.43-11.62q4.43-5.17,12.6-8.25a53.71,53.71,0,0,1,19-3.08H249Q266.37,1035.14,275.6,1041.89Zm-34.13,40.28q-4.65,2.63-4.65,7.28,0,7.2,9,7.19a9.94,9.94,0,0,0,7.2-2.92,10.11,10.11,0,0,0,3-7.58v-6.6Q246.12,1079.54,241.47,1082.17Z"/><path class="cls-3" d="M360.87,1039.34A29.71,29.71,0,0,1,373.25,1051a32.92,32.92,0,0,1,4.27,16.73H352.17v-3.91a10.25,10.25,0,0,0-3-7.42,10.31,10.31,0,0,0-14.7,0,10.25,10.25,0,0,0-3,7.42v22.35a10.5,10.5,0,0,0,10.5,10.5h1.8a9.47,9.47,0,0,0,7.2-3,10.45,10.45,0,0,0,2.85-7.5v-3.89h23.7q0,15.45-9.6,24t-26.1,8.54h-4.35a37.29,37.29,0,0,1-18.75-5,38,38,0,0,1-13.87-13.42,34.64,34.64,0,0,1-5.18-18.38v-6.15a35,35,0,0,1,5.1-18.37,37.55,37.55,0,0,1,13.73-13.43,36.86,36.86,0,0,1,18.67-4.95h4.5A41.32,41.32,0,0,1,360.87,1039.34Z"/><path class="cls-3" d="M418.32,1005.29v59.85l19.5-28.5h33.9l-26.85,34.65,27.3,42H437.22l-13.5-21.75-5.4,4.66v17.09h-29.7v-108Z"/><path class="cls-3" d="M551.67,1005a39.18,39.18,0,0,1,9.6,2.39v16.5a26.27,26.27,0,0,0-4.65-1,33.89,33.89,0,0,0-4.65-.45,10.93,10.93,0,0,0-6.23,1.58c-1.55,1-2.32,3.43-2.32,7.12v5.55h18V1058h-18v55.34h-29.7V1058h-9.6v-21.31h9.6v-9.89q0-11.7,7.35-17.18t20.1-5.48A73.2,73.2,0,0,1,551.67,1005Z"/><path class="cls-3" d="M632,1040a36.21,36.21,0,0,1,14.25,13.57,38,38,0,0,1,5.17,19.8v3.15a38.31,38.31,0,0,1-5.17,20A35.63,35.63,0,0,1,632,1110a42.81,42.81,0,0,1-20.33,4.79h-4.79a42.27,42.27,0,0,1-20.33-4.87,36.1,36.1,0,0,1-14.25-13.58,37.93,37.93,0,0,1-5.17-19.8v-3.15a38,38,0,0,1,5.17-19.8A36.21,36.21,0,0,1,586.54,1040a42.28,42.28,0,0,1,20.33-4.88h4.79A42.28,42.28,0,0,1,632,1040Zm-30.08,16.35a10.25,10.25,0,0,0-3,7.42v22.35a10.24,10.24,0,0,0,3,7.43,10.35,10.35,0,0,0,14.71,0,10.28,10.28,0,0,0,3-7.43v-22.35a10.29,10.29,0,0,0-3-7.42,10.32,10.32,0,0,0-14.71,0Z"/><path class="cls-3" d="M723.94,1040.62q5.47,5.48,5.47,15.08v2.55l-.3,5.7-.3,3.75h-24.3v-3.61a7.87,7.87,0,0,0-1.87-5.32,5.69,5.69,0,0,0-4.42-2.18,5.82,5.82,0,0,0-4.58,2.18,7.88,7.88,0,0,0-1.88,5.32v49.2h-29v-76.65H685l3.3,11.11a26.32,26.32,0,0,1,3.45-4.8,24.58,24.58,0,0,1,6.9-5.41,20.26,20.26,0,0,1,9.9-2.4Q718.46,1035.14,723.94,1040.62Z"/><path class="cls-3" d="M68.15,1186.64h18V1208h-18v28.34c0,4,.77,6.73,2.32,8.18a8.76,8.76,0,0,0,6.23,2.17,27.9,27.9,0,0,0,4.72-.52,19.47,19.47,0,0,0,4.58-1.28v16.8a38.23,38.23,0,0,1-9.6,2.4,74.43,74.43,0,0,1-10.5.91q-13.2,0-20.33-4.81t-7.12-16.35V1208h-8.4v-21.31h9.6L50,1162.2H68.15Z"/><path class="cls-3" d="M145.55,1185.14h4.2a22.37,22.37,0,0,1,22.5,22.5v55.65h-29.7v-48a9.29,9.29,0,0,0-2.33-6.37,7.33,7.33,0,0,0-11.25,0,9.28,9.28,0,0,0-2.32,6.37v48H97v-108h29.7v40.35Q133.85,1185.16,145.55,1185.14Z"/><path class="cls-3" d="M247.92,1189.57a31.07,31.07,0,0,1,12.75,12.22,35.59,35.59,0,0,1,4.43,17.85V1229h-50v7.19c0,3.41,1.07,6,3.22,7.81a12.54,12.54,0,0,0,8.33,2.69q5.25,0,8-3.22t2.78-8.92H265a28,28,0,0,1-4.43,15.45,29.93,29.93,0,0,1-12.9,10.87q-8.48,4-20,4h-2.25a50.53,50.53,0,0,1-21.53-4.42,35,35,0,0,1-15-12.9q-5.48-8.48-5.47-20.18v-4.65q0-11.7,5.17-20.17a33.32,33.32,0,0,1,14.48-12.9,49,49,0,0,1,21.3-4.43h3.75Q239.6,1185.14,247.92,1189.57Zm-29.77,16.8a10.21,10.21,0,0,0-3,7.42v2.1h20.7v-2.1a10.25,10.25,0,0,0-3-7.42,10.31,10.31,0,0,0-14.7,0Z"/><path class="cls-3" d="M377.37,1164.59a31.38,31.38,0,0,1,15.67,27.3v3.31a31.34,31.34,0,0,1-31.5,31.5H338.29v36.59h-31.5v-102.9h54.75A31.22,31.22,0,0,1,377.37,1164.59Zm-39.08,39.16h13.8a8.27,8.27,0,0,0,6.6-2.78,9.26,9.26,0,0,0,2.4-6.22V1193a9.45,9.45,0,0,0-2.32-6.23,8.23,8.23,0,0,0-6.68-2.77h-13.8Z"/><path class="cls-3" d="M463.62,1189.57a31.07,31.07,0,0,1,12.75,12.22,35.69,35.69,0,0,1,4.42,17.85V1229h-50v7.19c0,3.41,1.08,6,3.23,7.81a12.51,12.51,0,0,0,8.32,2.69c3.5,0,6.17-1.07,8-3.22s2.77-5.12,2.77-8.92h27.45a28,28,0,0,1-4.42,15.45,29.93,29.93,0,0,1-12.9,10.87q-8.47,4-20,4H441a50.48,50.48,0,0,1-21.52-4.42,35,35,0,0,1-15-12.9Q399,1239,399,1227.29v-4.65q0-11.7,5.18-20.17a33.29,33.29,0,0,1,14.47-12.9,49,49,0,0,1,21.3-4.43h3.75Q455.29,1185.14,463.62,1189.57Zm-29.78,16.8a10.25,10.25,0,0,0-3,7.42v2.1h20.7v-2.1a10.25,10.25,0,0,0-3-7.42,10.31,10.31,0,0,0-14.7,0Z"/><path class="cls-3" d="M553.92,1190a36.21,36.21,0,0,1,14.25,13.57,38,38,0,0,1,5.17,19.8v3.15a38.31,38.31,0,0,1-5.17,20,35.63,35.63,0,0,1-14.25,13.5,42.81,42.81,0,0,1-20.33,4.79h-4.8a42.24,42.24,0,0,1-20.32-4.87,36,36,0,0,1-14.25-13.58,37.94,37.94,0,0,1-5.18-19.8v-3.15a38,38,0,0,1,5.18-19.8A36.15,36.15,0,0,1,508.47,1190a42.24,42.24,0,0,1,20.32-4.88h4.8A42.28,42.28,0,0,1,553.92,1190Zm-30.08,16.35a10.25,10.25,0,0,0-3,7.42v22.35a10.24,10.24,0,0,0,3,7.43,10.33,10.33,0,0,0,14.7,0,10.24,10.24,0,0,0,3-7.43v-22.35a10.25,10.25,0,0,0-3-7.42,10.31,10.31,0,0,0-14.7,0Z"/><path class="cls-3" d="M647.22,1189.5a29.8,29.8,0,0,1,11.7,13.12q4.27,8.78,4.27,21.52v1.65q0,12.76-3.82,21.53T649,1260.45a26.12,26.12,0,0,1-14.78,4.34q-14.1,0-19.8-9.45v35.11h-29.7V1186.64h23.7l2.7,8.86q8-10.37,19.35-10.36A32.49,32.49,0,0,1,647.22,1189.5Zm-30.08,16.87a10.87,10.87,0,0,0-2.7,7.42v21.75a10.86,10.86,0,0,0,2.7,7.43,8.63,8.63,0,0,0,13.2,0,10.86,10.86,0,0,0,2.7-7.43v-21.75a10.87,10.87,0,0,0-2.7-7.42,8.61,8.61,0,0,0-13.2,0Z"/><path class="cls-3" d="M704.59,1155.29v108h-29.7v-108Z"/><path class="cls-3" d="M780.71,1189.57a31.07,31.07,0,0,1,12.75,12.22,35.59,35.59,0,0,1,4.43,17.85V1229H747.94v7.19c0,3.41,1.07,6,3.22,7.81a12.54,12.54,0,0,0,8.33,2.69q5.25,0,8-3.22t2.78-8.92h27.45a28,28,0,0,1-4.43,15.45,29.93,29.93,0,0,1-12.9,10.87q-8.48,4-20,4h-2.25a50.53,50.53,0,0,1-21.53-4.42,35,35,0,0,1-15-12.9q-5.48-8.48-5.47-20.18v-4.65q0-11.7,5.17-20.17a33.32,33.32,0,0,1,14.48-12.9,49,49,0,0,1,21.3-4.43h3.75Q772.39,1185.14,780.71,1189.57Zm-29.77,16.8a10.25,10.25,0,0,0-3,7.42v2.1h20.7v-2.1a10.25,10.25,0,0,0-3-7.42,10.31,10.31,0,0,0-14.7,0Z"/></svg>