<svg id="Layer_2" data-name="Layer 2" xmlns="http://www.w3.org/2000/svg" viewBox="0 0 1670.22 746.42"><defs><style>.cls-1{fill:#388cf7;}.cls-2{fill:#69e4be;}</style></defs><circle class="cls-1" cx="630.06" cy="163.34" r="61.55"/><ellipse class="cls-1" cx="449.14" cy="447.13" rx="232.67" ry="134.01" transform="translate(-183.48 485.15) rotate(-48.31)"/><ellipse class="cls-2" cx="283.18" cy="434.17" rx="132.9" ry="235.32" transform="translate(-190.26 223.1) rotate(-32.86)"/><circle class="cls-2" cx="115.84" cy="163.34" r="61.55"/><path d="M871.8,360.28H840.3v-40H816v40H784.35V257.38h31.5v37.95h24.3V257.38H871.8Z"/><path d="M953.77,288.88q9.22,6.75,9.23,17.55v31.65a5.73,5.73,0,0,0,1.35,4.2,4.49,4.49,0,0,0,3.3,1.35,10.53,10.53,0,0,0,5.25-1.35v16.05q-4.8,3.45-15.15,3.45-9.6,0-15.15-3.22a13.76,13.76,0,0,1-6.9-8.93,40.73,40.73,0,0,1-10.58,8.85,28.16,28.16,0,0,1-14.17,3.3q-12,0-19.5-4.65t-7.5-18.3q0-10.35,5.85-16t16.72-7.8q10.88-2.18,27.68-2.18v-4.35a8.27,8.27,0,0,0-2.78-6.6,10.27,10.27,0,0,0-7-2.4,11.69,11.69,0,0,0-6.53,2,5.9,5.9,0,0,0-3.07,5v.6h-28.5a8.71,8.71,0,0,1-.15-2.1,17.41,17.41,0,0,1,4.42-11.62q4.43-5.18,12.6-8.25a53.77,53.77,0,0,1,19-3.08h4.95Q944.55,282.13,953.77,288.88Zm-34.12,40.28q-4.65,2.63-4.65,7.27,0,7.2,9,7.2a9.94,9.94,0,0,0,7.2-2.92,10.12,10.12,0,0,0,3-7.58v-6.6Q924.3,326.53,919.65,329.16Z"/><path d="M1039.05,286.33A29.62,29.62,0,0,1,1051.42,298a32.89,32.89,0,0,1,4.28,16.72h-25.35v-3.9a10.23,10.23,0,0,0-3-7.42,10.31,10.31,0,0,0-14.7,0,10.23,10.23,0,0,0-3,7.42v22.35a10.48,10.48,0,0,0,10.5,10.5h1.8a9.51,9.51,0,0,0,7.2-3,10.46,10.46,0,0,0,2.85-7.5v-3.9h23.7q0,15.45-9.6,24t-26.1,8.55h-4.35a37.29,37.29,0,0,1-18.75-4.95A38,38,0,0,1,983,343.41,34.63,34.63,0,0,1,977.85,325v-6.15a35,35,0,0,1,5.1-18.37,37.6,37.6,0,0,1,13.72-13.43,36.9,36.9,0,0,1,18.68-4.95h4.5Q1031,282.13,1039.05,286.33Z"/><path d="M1096.49,252.28v59.85l19.5-28.5h33.9L1123,318.28l27.3,42h-34.95l-13.5-21.75-5.4,4.65v17.1h-29.7v-108Z"/><path d="M1229.84,252a39.12,39.12,0,0,1,9.6,2.4v16.5a25.2,25.2,0,0,0-4.65-1.05,33.62,33.62,0,0,0-4.65-.45,10.92,10.92,0,0,0-6.22,1.58q-2.33,1.57-2.33,7.12v5.55h18v21.3h-18v55.35h-29.7V304.93h-9.6v-21.3h9.6v-9.9q0-11.7,7.35-17.17t20.1-5.48A74.24,74.24,0,0,1,1229.84,252Z"/><path d="M1310.17,287a36.21,36.21,0,0,1,14.25,13.57,38,38,0,0,1,5.17,19.8v3.15a38.27,38.27,0,0,1-5.17,20,35.7,35.7,0,0,1-14.25,13.5,42.84,42.84,0,0,1-20.33,4.8H1285a42.21,42.21,0,0,1-20.32-4.87,36.1,36.1,0,0,1-14.25-13.58,38,38,0,0,1-5.18-19.8v-3.15a38,38,0,0,1,5.18-19.8A36.08,36.08,0,0,1,1264.72,287a42.21,42.21,0,0,1,20.32-4.88h4.8A42.31,42.31,0,0,1,1310.17,287Zm-30.08,16.35a10.23,10.23,0,0,0-3,7.42v22.35a10.26,10.26,0,0,0,3,7.43,10.33,10.33,0,0,0,14.7,0,10.26,10.26,0,0,0,3-7.43V310.78a10.23,10.23,0,0,0-3-7.42,10.31,10.31,0,0,0-14.7,0Z"/><path d="M1402.12,287.61q5.46,5.47,5.47,15.07v2.55l-.3,5.7-.3,3.75h-24.3v-3.6a7.91,7.91,0,0,0-1.87-5.32,5.71,5.71,0,0,0-4.43-2.18,5.8,5.8,0,0,0-4.57,2.18,7.81,7.81,0,0,0-1.88,5.32v49.2h-29V283.63h22.2l3.3,11.1a26.67,26.67,0,0,1,3.45-4.8,24.38,24.38,0,0,1,6.9-5.4,20.15,20.15,0,0,1,9.9-2.4Q1396.64,282.13,1402.12,287.61Z"/><path d="M817.35,433.63h18v21.3h-18v28.35q0,6,2.32,8.18a8.76,8.76,0,0,0,6.23,2.17,27.9,27.9,0,0,0,4.72-.52,19.81,19.81,0,0,0,4.58-1.28v16.8a39.12,39.12,0,0,1-9.6,2.4,74.24,74.24,0,0,1-10.5.9q-13.2,0-20.33-4.8t-7.12-16.35V454.93h-8.4v-21.3h9.6l10.35-24.45h18.15Z"/><path d="M894.75,432.13H899a22.37,22.37,0,0,1,22.5,22.5v55.65h-29.7v-48a9.27,9.27,0,0,0-2.33-6.37,7.33,7.33,0,0,0-11.25,0,9.26,9.26,0,0,0-2.32,6.37v48h-29.7v-108h29.7v40.35Q883.05,432.13,894.75,432.13Z"/><path d="M997.12,436.56a31,31,0,0,1,12.75,12.22,35.54,35.54,0,0,1,4.43,17.85v9.3H964.35v7.2q0,5.1,3.22,7.8a12.54,12.54,0,0,0,8.33,2.7q5.25,0,8-3.22t2.78-8.93h27.45a28,28,0,0,1-4.43,15.45,30,30,0,0,1-12.9,10.88,46.89,46.89,0,0,1-20,4h-2.25A50.68,50.68,0,0,1,953,507.36a35,35,0,0,1-15-12.9q-5.47-8.47-5.47-20.18v-4.65q0-11.7,5.17-20.17a33.32,33.32,0,0,1,14.48-12.9,49,49,0,0,1,21.3-4.43h3.75Q988.8,432.13,997.12,436.56Zm-29.77,16.8a10.23,10.23,0,0,0-3,7.42v2.1h20.7v-2.1a10.23,10.23,0,0,0-3-7.42,10.31,10.31,0,0,0-14.7,0Z"/><path d="M1126.57,411.58a31.38,31.38,0,0,1,15.67,27.3v3.3A31.12,31.12,0,0,1,1138,458a31.34,31.34,0,0,1-27.3,15.67h-23.25v36.6H1056V407.38h54.75A31.1,31.1,0,0,1,1126.57,411.58Zm-39.08,39.15h13.8a8.3,8.3,0,0,0,6.61-2.77,9.32,9.32,0,0,0,2.39-6.23v-1.8a9.43,9.43,0,0,0-2.32-6.22,8.23,8.23,0,0,0-6.68-2.78h-13.8Z"/><path d="M1212.82,436.56a31,31,0,0,1,12.75,12.22,35.54,35.54,0,0,1,4.42,17.85v9.3h-50v7.2q0,5.1,3.23,7.8a12.52,12.52,0,0,0,8.32,2.7q5.25,0,8-3.22t2.77-8.93h27.45a28,28,0,0,1-4.42,15.45,30,30,0,0,1-12.9,10.88,46.94,46.94,0,0,1-20,4h-2.25a50.63,50.63,0,0,1-21.52-4.42,35,35,0,0,1-15-12.9q-5.48-8.47-5.48-20.18v-4.65q0-11.7,5.18-20.17a33.29,33.29,0,0,1,14.47-12.9,49,49,0,0,1,21.3-4.43h3.75Q1204.49,432.13,1212.82,436.56ZM1183,453.36a10.23,10.23,0,0,0-3,7.42v2.1h20.7v-2.1a10.23,10.23,0,0,0-3-7.42,10.31,10.31,0,0,0-14.7,0Z"/><path d="M1303.12,437a36.14,36.14,0,0,1,14.25,13.57,38,38,0,0,1,5.17,19.8v3.15a38.27,38.27,0,0,1-5.17,20,35.63,35.63,0,0,1-14.25,13.5,42.81,42.81,0,0,1-20.33,4.8H1278a42.24,42.24,0,0,1-20.32-4.87,36.17,36.17,0,0,1-14.25-13.58,38,38,0,0,1-5.18-19.8v-3.15a38,38,0,0,1,5.18-19.8A36.14,36.14,0,0,1,1257.67,437a42.24,42.24,0,0,1,20.32-4.88h4.8A42.28,42.28,0,0,1,1303.12,437ZM1273,453.36a10.23,10.23,0,0,0-3,7.42v22.35a10.26,10.26,0,0,0,3,7.43,10.33,10.33,0,0,0,14.7,0,10.26,10.26,0,0,0,3-7.43V460.78a10.23,10.23,0,0,0-3-7.42,10.31,10.31,0,0,0-14.7,0Z"/><path d="M1396.42,436.48a29.83,29.83,0,0,1,11.7,13.13q4.28,8.77,4.27,21.52v1.65q0,12.75-3.82,21.53t-10.35,13.12a26,26,0,0,1-14.78,4.35q-14.1,0-19.8-9.45v35.1h-29.7V433.63h23.7l2.7,8.85q8-10.35,19.35-10.35A32.48,32.48,0,0,1,1396.42,436.48Zm-30.08,16.88a10.85,10.85,0,0,0-2.7,7.42v21.75a10.88,10.88,0,0,0,2.7,7.43,8.63,8.63,0,0,0,13.2,0,10.88,10.88,0,0,0,2.7-7.43V460.78a10.85,10.85,0,0,0-2.7-7.42,8.61,8.61,0,0,0-13.2,0Z"/><path d="M1453.79,402.28v108h-29.7v-108Z"/><path d="M1529.91,436.56a31,31,0,0,1,12.75,12.22,35.54,35.54,0,0,1,4.43,17.85v9.3h-49.95v7.2c0,3.4,1.07,6,3.23,7.8a12.5,12.5,0,0,0,8.32,2.7q5.25,0,8-3.22t2.78-8.93h27.45a28,28,0,0,1-4.43,15.45,30,30,0,0,1-12.89,10.88,47,47,0,0,1-20,4h-2.25a50.6,50.6,0,0,1-21.52-4.42,34.86,34.86,0,0,1-15-12.9q-5.49-8.47-5.48-20.18v-4.65q0-11.7,5.17-20.17a33.32,33.32,0,0,1,14.48-12.9,49,49,0,0,1,21.3-4.43H1510Q1521.59,432.13,1529.91,436.56Zm-29.77,16.8a10.23,10.23,0,0,0-3,7.42v2.1h20.7v-2.1a10.23,10.23,0,0,0-3-7.42,10.31,10.31,0,0,0-14.7,0Z"/></svg>